<svg width="26" height="29" viewBox="0 0 26 29" fill="none" xmlns="http://www.w3.org/2000/svg">
<path d="M23.1562 14.5C23.1562 14.8605 23.0278 15.2063 22.7993 15.4612C22.5707 15.7162 22.2607 15.8594 21.9375 15.8594H4.0625C3.73927 15.8594 3.42927 15.7162 3.20071 15.4612C2.97215 15.2063 2.84375 14.8605 2.84375 14.5C2.84375 14.1395 2.97215 13.7937 3.20071 13.5388C3.42927 13.2838 3.73927 13.1406 4.0625 13.1406H21.9375C22.2607 13.1406 22.5707 13.2838 22.7993 13.5388C23.0278 13.7937 23.1562 14.1395 23.1562 14.5ZM4.0625 8.60938H21.9375C22.2607 8.60937 22.5707 8.46616 22.7993 8.21122C23.0278 7.95629 23.1562 7.61053 23.1562 7.25C23.1562 6.88947 23.0278 6.54371 22.7993 6.28878C22.5707 6.03384 22.2607 5.89062 21.9375 5.89062H4.0625C3.73927 5.89062 3.42927 6.03384 3.20071 6.28878C2.97215 6.54371 2.84375 6.88947 2.84375 7.25C2.84375 7.61053 2.97215 7.95629 3.20071 8.21122C3.42927 8.46616 3.73927 8.60938 4.0625 8.60938ZM21.9375 20.3906H4.0625C3.73927 20.3906 3.42927 20.5338 3.20071 20.7888C2.97215 21.0437 2.84375 21.3895 2.84375 21.75C2.84375 22.1105 2.97215 22.4563 3.20071 22.7112C3.42927 22.9662 3.73927 23.1094 4.0625 23.1094H21.9375C22.2607 23.1094 22.5707 22.9662 22.7993 22.7112C23.0278 22.4563 23.1562 22.1105 23.1562 21.75C23.1562 21.3895 23.0278 21.0437 22.7993 20.7888C22.5707 20.5338 22.2607 20.3906 21.9375 20.3906Z" fill="black"/>
</svg>
