<svg width="130" height="22" viewBox="0 0 130 22" fill="none" xmlns="http://www.w3.org/2000/svg">
<path d="M11.2969 0.734375H19.9219V11.6719H18.8125C16.125 11.6719 14.1979 11.2083 13.0312 10.2812C11.875 9.35417 11.2969 7.77604 11.2969 5.54688V0.734375ZM8.17188 22C6.48438 22 4.98438 21.375 3.67188 20.125C2.51562 19.0208 1.60938 17.5521 0.953125 15.7188C0.348958 14.0312 0.046875 12.3594 0.046875 10.7031C0.046875 8.21354 0.661458 6 1.89062 4.0625C2.76562 2.6875 3.91667 1.71875 5.34375 1.15625C6.07292 0.875 6.88542 0.734375 7.78125 0.734375H8.98438V22H8.17188ZM11.2969 17.9219H19.1094V18.3594C19.1094 19.3281 18.7604 20.1458 18.0625 20.8125C17.2083 21.6042 15.9948 22 14.4219 22H11.2969V17.9219ZM35.2812 6.0625H43.9062V22H42.9219C40.2135 22 38.2656 21.526 37.0781 20.5781C35.8802 19.6198 35.2812 18.0365 35.2812 15.8281V6.0625ZM24 14.2188C24 13.0729 24.151 12.0104 24.4531 11.0312C24.7552 10.0417 25.224 9.17708 25.8594 8.4375C27.2344 6.85417 29.2031 6.0625 31.7656 6.0625H32.9688V22H32.1562C29.5312 22 27.5 21.2812 26.0625 19.8438C24.6875 18.4688 24 16.5938 24 14.2188ZM59.8438 10.5C59.8438 7.54167 61.7552 6.0625 65.5781 6.0625H67.7656V14.0312H59.8438V10.5ZM48.9062 6.0625H57.5938V22H48.9062V6.0625ZM79.7344 22C74.5781 22 72 19.6458 72 14.9375V6.15625L78.6094 1.82812H80.9531V22H79.7344ZM83.2188 6.0625H90.7031V11.2969H83.2188V6.0625ZM83.2344 15.3281H91.9062V16.7031C91.9062 18.474 91.3646 19.7812 90.2812 20.625C89.1042 21.5417 87.2031 22 84.5781 22H83.2344V15.3281ZM96.4219 0.734375H104.828V22H96.4219V0.734375ZM120.609 6.0625H122.016C125.849 6.0625 128.135 7.36458 128.875 9.96875C129.125 10.8125 129.25 11.7865 129.25 12.8906V22H120.609V6.0625ZM109.344 6.0625H118.031V22H109.344V6.0625Z" fill="black"/>
</svg>
